# xmcd CD database file
#
# Track frame offsets:
#	150
#	32480
#	58450
#	81734
#	98533
#	119446
#	130832
#	152666
#	174277
#	196720
#
# Disc length: 2867 seconds
#
# Revision: 0
# Processed by: cddbd v1.5.2PL0 Copyright (c) Steve Scherf et al.
# Submitted via: CDex 1.51
#
DISCID=7e0b310a
DTITLE=Peter Rosendal - Wondering
DYEAR=2004
DGENRE=Jazz
TTITLE0=Altanen [The Balcony]
TTITLE1=Natsværmeren [The Moth]
TTITLE2=Ballade
TTITLE3=Sweets for Georgia
TTITLE4=Wondering
TTITLE5=Moon river
TTITLE6=Hu hej vilde dyr [In A Mad Scramble]
TTITLE7=Fine fornemmelser [De;ocate] - Ællingen [The Duckling]
TTITLE8=It could happen to you
TTITLE9=Godnatsang [Lullaby]
EXTD=YEAR: 2004
EXTT0=
EXTT1=
EXTT2=
EXTT3=
EXTT4=
EXTT5=
EXTT6=
EXTT7=
EXTT8=
EXTT9=
PLAYORDER=
